<svg width="100%" viewBox="0 0 680 220" role="img" xmlns="http://www.w3.org/2000/svg">
  <title>Muhammad Ali Ahmad — GitHub Profile Banner</title>
  <desc>A dark geometric banner with tech-inspired grid design and the name Muhammad Ali Ahmad.</desc>

  <rect width="680" height="220" fill="#0d1117" rx="12"/>

  <line x1="0" y1="44" x2="680" y2="44" stroke="#ffffff" stroke-opacity="0.04" stroke-width="0.5"/>
  <line x1="0" y1="88" x2="680" y2="88" stroke="#ffffff" stroke-opacity="0.04" stroke-width="0.5"/>
  <line x1="0" y1="132" x2="680" y2="132" stroke="#ffffff" stroke-opacity="0.04" stroke-width="0.5"/>
  <line x1="0" y1="176" x2="680" y2="176" stroke="#ffffff" stroke-opacity="0.04" stroke-width="0.5"/>
  <line x1="68"  y1="0" x2="68"  y2="220" stroke="#ffffff" stroke-opacity="0.04" stroke-width="0.5"/>
  <line x1="136" y1="0" x2="136" y2="220" stroke="#ffffff" stroke-opacity="0.04" stroke-width="0.5"/>
  <line x1="204" y1="0" x2="204" y2="220" stroke="#ffffff" stroke-opacity="0.04" stroke-width="0.5"/>
  <line x1="272" y1="0" x2="272" y2="220" stroke="#ffffff" stroke-opacity="0.04" stroke-width="0.5"/>
  <line x1="340" y1="0" x2="340" y2="220" stroke="#ffffff" stroke-opacity="0.04" stroke-width="0.5"/>
  <line x1="408" y1="0" x2="408" y2="220" stroke="#ffffff" stroke-opacity="0.04" stroke-width="0.5"/>
  <line x1="476" y1="0" x2="476" y2="220" stroke="#ffffff" stroke-opacity="0.04" stroke-width="0.5"/>
  <line x1="544" y1="0" x2="544" y2="220" stroke="#ffffff" stroke-opacity="0.04" stroke-width="0.5"/>
  <line x1="612" y1="0" x2="612" y2="220" stroke="#ffffff" stroke-opacity="0.04" stroke-width="0.5"/>

  <polyline points="24,24 24,8 40,8" fill="none" stroke="#58a6ff" stroke-width="1.5" stroke-linecap="round"/>
  <polyline points="656,24 656,8 640,8" fill="none" stroke="#58a6ff" stroke-width="1.5" stroke-linecap="round"/>
  <polyline points="24,196 24,212 40,212" fill="none" stroke="#58a6ff" stroke-width="1.5" stroke-linecap="round"/>
  <polyline points="656,196 656,212 640,212" fill="none" stroke="#58a6ff" stroke-width="1.5" stroke-linecap="round"/>

  <circle cx="44" cy="110" r="2" fill="#58a6ff" opacity="0.7"/>
  <circle cx="52" cy="104" r="1.5" fill="#58a6ff" opacity="0.4"/>
  <circle cx="52" cy="116" r="1.5" fill="#58a6ff" opacity="0.4"/>
  <circle cx="60" cy="110" r="1" fill="#58a6ff" opacity="0.25"/>
  <circle cx="636" cy="110" r="2" fill="#58a6ff" opacity="0.7"/>
  <circle cx="628" cy="104" r="1.5" fill="#58a6ff" opacity="0.4"/>
  <circle cx="628" cy="116" r="1.5" fill="#58a6ff" opacity="0.4"/>
  <circle cx="620" cy="110" r="1" fill="#58a6ff" opacity="0.25"/>

  <rect x="40" y="28" width="600" height="1" fill="#58a6ff" opacity="0.15" rx="1"/>
  <rect x="40" y="191" width="600" height="1" fill="#58a6ff" opacity="0.15" rx="1"/>

  <rect x="40" y="36" width="68" height="16" fill="#58a6ff" fill-opacity="0.12" rx="3"/>
  <text x="74" y="48" font-family="monospace" font-size="9" fill="#58a6ff" fill-opacity="0.8" text-anchor="middle" letter-spacing="1">README.md</text>

  <text x="340" y="105"
        font-family="monospace"
        font-size="52"
        font-weight="700"
        fill="#ffffff"
        text-anchor="middle"
        letter-spacing="6"
        opacity="0.95">DEVELOPER</text>

  <rect x="180" y="113" width="320" height="2" fill="#58a6ff" opacity="0.6" rx="1"/>

  <text x="340" y="145"
        font-family="monospace"
        font-size="15"
        fill="#8b949e"
        text-anchor="middle"
        letter-spacing="4">Muhammad Ali Ahmad</text>

  <rect x="112" y="160" width="130" height="20" fill="#58a6ff" fill-opacity="0.1" rx="3" stroke="#58a6ff" stroke-opacity="0.3" stroke-width="0.5"/>
  <text x="177" y="174" font-family="monospace" font-size="10" fill="#58a6ff" text-anchor="middle" letter-spacing="0.5">Full Stack Dev</text>

  <rect x="275" y="160" width="130" height="20" fill="#3fb950" fill-opacity="0.1" rx="3" stroke="#3fb950" stroke-opacity="0.3" stroke-width="0.5"/>
  <text x="340" y="174" font-family="monospace" font-size="10" fill="#3fb950" text-anchor="middle" letter-spacing="0.5">AI / ML Engineer</text>

  <rect x="438" y="160" width="130" height="20" fill="#f78166" fill-opacity="0.1" rx="3" stroke="#f78166" stroke-opacity="0.3" stroke-width="0.5"/>
  <text x="503" y="174" font-family="monospace" font-size="10" fill="#f78166" text-anchor="middle" letter-spacing="0.5">Data Scientist</text>

  <text x="340" y="204"
        font-family="monospace"
        font-size="10"
        fill="#484f58"
        text-anchor="middle"
        letter-spacing="2">Islamabad, Pakistan</text>
</svg>
